# xmcd
#
# Track frame offsets:
#	150
#	14570
#	26161
#	40857
#	54644
#	65726
#	82909
#	97486
#	109679
#	122109
#	134392
#
# Disc length: 1973 seconds
#
# Revision: 0
# Processed by: cddbd v1.5.2PL0 Copyright (c) Steve Scherf et al.
# Submitted via: dBpowerAMP V4.0
#
DISCID=9e07b30b
DTITLE=Larry Branson - Just Me
DYEAR=1900
DGENRE=Country
TTITLE0=Blue Spanish Eyes
TTITLE1=Behind Closed Doors
TTITLE2=Don't Worry
TTITLE3=I've Gatta Be Sure
TTITLE4=Leah
TTITLE5=Now Or Never
TTITLE6=Cheryl Moana Marie
TTITLE7=Cry My Little One
TTITLE8=Place In The Sun
TTITLE9=Most Beautiful
TTITLE10=Pretty Woman
EXTD=
EXTT0=
EXTT1=
EXTT2=
EXTT3=
EXTT4=
EXTT5=
EXTT6=
EXTT7=
EXTT8=
EXTT9=
EXTT10=
PLAYORDER=
